<?xml version="1.0" encoding="utf-8"?>
<!-- Generator: Adobe Illustrator 15.0.0, SVG Export Plug-In . SVG Version: 6.00 Build 0)  -->
<!DOCTYPE svg PUBLIC "-//W3C//DTD SVG 1.1//EN" "http://www.w3.org/Graphics/SVG/1.1/DTD/svg11.dtd">
<svg version="1.1" id="Calque_3" xmlns="http://www.w3.org/2000/svg" xmlns:xlink="http://www.w3.org/1999/xlink" x="0px" y="0px"
	 width="26px" height="28px" viewBox="0 0 26 28" enable-background="new 0 0 26 28" xml:space="preserve">
<rect stroke="#000000" stroke-miterlimit="10" width="26" height="28"/>
<g>
	<path fill="#FFFFFF" stroke="#FFFFFF" stroke-miterlimit="10" d="M5.828,4.111c1.303-0.275,3.396-0.458,5.454-0.458
		c2.984,0,4.905,0.458,6.311,1.498c1.201,0.795,1.956,2.019,1.956,3.639c0,2.018-1.51,3.761-3.911,4.525v0.092
		c2.195,0.458,4.769,2.08,4.769,5.137c0,1.773-0.789,3.119-1.99,4.128c-1.577,1.315-4.185,1.927-7.958,1.927
		c-2.058,0-3.636-0.122-4.631-0.245V4.111z M8.812,12.551h2.709c3.122,0,4.974-1.499,4.974-3.486c0-2.385-2.023-3.363-5.042-3.363
		c-1.372,0-2.161,0.091-2.641,0.183V12.551z M8.812,22.396c0.617,0.092,1.44,0.123,2.504,0.123c3.087,0,5.934-1.01,5.934-4.006
		c0-2.783-2.71-3.976-5.968-3.976h-2.47V22.396z"/>
</g>
</svg>
