<?xml version="1.0" encoding="utf-8"?>
<!-- Generator: Adobe Illustrator 15.0.0, SVG Export Plug-In . SVG Version: 6.00 Build 0)  -->
<!DOCTYPE svg PUBLIC "-//W3C//DTD SVG 1.1//EN" "http://www.w3.org/Graphics/SVG/1.1/DTD/svg11.dtd">
<svg version="1.1" id="Calque_3" xmlns="http://www.w3.org/2000/svg" xmlns:xlink="http://www.w3.org/1999/xlink" x="0px" y="0px"
	 width="26px" height="28px" viewBox="0 0 26 28" enable-background="new 0 0 26 28" xml:space="preserve">
<rect stroke="#000000" stroke-miterlimit="10" width="26" height="28"/>
<g>
	<path fill="#FFFFFF" stroke="#FFFFFF" stroke-miterlimit="10" d="M5.345,4.08c1.53-0.245,3.315-0.428,5.271-0.428
		c3.542,0,6.064,0.856,7.736,2.538c1.729,1.682,2.72,4.097,2.72,7.43c0,3.364-0.991,6.116-2.748,8.012
		c-1.813,1.926-4.761,2.966-8.473,2.966c-1.785,0-3.23-0.062-4.505-0.245V4.08z M7.839,22.336c0.624,0.122,1.53,0.122,2.494,0.122
		c5.27,0.03,8.132-3.181,8.132-8.746c0.028-4.923-2.521-7.95-7.736-7.95c-1.275,0-2.238,0.122-2.89,0.275V22.336z"/>
</g>
</svg>
