<?xml version="1.0" encoding="utf-8"?>
<!-- Generator: Adobe Illustrator 15.0.0, SVG Export Plug-In . SVG Version: 6.00 Build 0)  -->
<!DOCTYPE svg PUBLIC "-//W3C//DTD SVG 1.1//EN" "http://www.w3.org/Graphics/SVG/1.1/DTD/svg11.dtd">
<svg version="1.1" id="Calque_3" xmlns="http://www.w3.org/2000/svg" xmlns:xlink="http://www.w3.org/1999/xlink" x="0px" y="0px"
	 width="26px" height="28px" viewBox="0 0 26 28" enable-background="new 0 0 26 28" xml:space="preserve">
<rect stroke="#000000" stroke-miterlimit="10" width="26" height="28"/>
<g>
	<path fill="#FFFFFF" stroke="#FFFFFF" stroke-miterlimit="10" d="M4.323,7.644c-1.061,0-1.768-0.795-1.768-1.743
		c0-0.948,0.739-1.712,1.833-1.712c1.093,0,1.8,0.765,1.8,1.712c0,0.948-0.708,1.743-1.833,1.743H4.323z M2.973,25.165v-14.8h2.829
		v14.8H2.973z"/>
	<path fill="#FFFFFF" stroke="#FFFFFF" stroke-miterlimit="10" d="M10.494,14.371c0-1.559-0.032-2.783-0.129-4.005h2.508
		l0.161,2.416h0.064c0.771-1.376,2.572-2.752,5.144-2.752c2.154,0,5.498,1.223,5.498,6.299v8.837h-2.83v-8.531
		c0-2.385-0.932-4.403-3.601-4.403c-1.832,0-3.279,1.253-3.793,2.752c-0.128,0.336-0.193,0.825-0.193,1.254v8.929h-2.829V14.371z"/>
</g>
</svg>
