<?xml version="1.0" encoding="utf-8"?>
<!-- Generator: Adobe Illustrator 15.0.0, SVG Export Plug-In . SVG Version: 6.00 Build 0)  -->
<!DOCTYPE svg PUBLIC "-//W3C//DTD SVG 1.1//EN" "http://www.w3.org/Graphics/SVG/1.1/DTD/svg11.dtd">
<svg version="1.1" id="Calque_3" xmlns="http://www.w3.org/2000/svg" xmlns:xlink="http://www.w3.org/1999/xlink" x="0px" y="0px"
	 width="26px" height="28px" viewBox="0 0 26 28" enable-background="new 0 0 26 28" xml:space="preserve">
<rect stroke="#000000" stroke-miterlimit="10" width="26" height="28"/>
<g>
	<path fill="#FFFFFF" stroke="#FFFFFF" stroke-miterlimit="10" d="M20.94,23.772c-1.006,0.489-3.115,0.979-5.776,0.979
		c-6.167,0-10.775-3.669-10.775-10.458c0-6.482,4.641-10.825,11.424-10.825c2.694,0,4.447,0.55,5.193,0.917l-0.714,2.171
		c-1.039-0.489-2.564-0.856-4.382-0.856c-5.128,0-8.536,3.088-8.536,8.5c0,5.076,3.083,8.287,8.374,8.287
		c1.753,0,3.505-0.336,4.641-0.855L20.94,23.772z"/>
</g>
</svg>
